<mxfile host="65bd71144e">
    <diagram name="Страница — 1" id="DPWCWUmwUdzIHu66x9n9">
        <mxGraphModel dx="1195" dy="1134" grid="1" gridSize="10" guides="1" tooltips="1" connect="1" arrows="1" fold="1" page="0" pageScale="1" pageWidth="1169" pageHeight="827" math="0" shadow="0">
            <root>
                <mxCell id="0"/>
                <mxCell id="1" parent="0"/>
                <mxCell id="4SYehKu4-7LgS69gVi2z-3" value="ROM" style="rounded=0;whiteSpace=wrap;html=1;" parent="1" vertex="1">
                    <mxGeometry x="360" y="200" width="80" height="80" as="geometry"/>
                </mxCell>
                <mxCell id="4SYehKu4-7LgS69gVi2z-56" style="edgeStyle=orthogonalEdgeStyle;rounded=0;orthogonalLoop=1;jettySize=auto;html=1;exitX=1;exitY=0.75;exitDx=0;exitDy=0;entryX=0;entryY=0.5;entryDx=0;entryDy=0;" parent="1" edge="1">
                    <mxGeometry relative="1" as="geometry">
                        <mxPoint x="1160" y="210" as="sourcePoint"/>
                        <mxPoint x="720" y="240" as="targetPoint"/>
                        <Array as="points">
                            <mxPoint x="1160" y="190"/>
                            <mxPoint x="1190" y="190"/>
                            <mxPoint x="1190" y="360"/>
                            <mxPoint x="660" y="360"/>
                            <mxPoint x="660" y="240"/>
                        </Array>
                    </mxGeometry>
                </mxCell>
                <mxCell id="11" value="WE_ALU" style="edgeLabel;html=1;align=center;verticalAlign=middle;resizable=0;points=[];" vertex="1" connectable="0" parent="4SYehKu4-7LgS69gVi2z-56">
                    <mxGeometry x="-0.8329" y="-1" relative="1" as="geometry">
                        <mxPoint x="1" y="-38" as="offset"/>
                    </mxGeometry>
                </mxCell>
                <mxCell id="4SYehKu4-7LgS69gVi2z-69" style="edgeStyle=orthogonalEdgeStyle;rounded=0;orthogonalLoop=1;jettySize=auto;html=1;exitX=0.25;exitY=0;exitDx=0;exitDy=0;entryX=0;entryY=0.5;entryDx=0;entryDy=0;" parent="1" source="4SYehKu4-7LgS69gVi2z-4" target="4SYehKu4-7LgS69gVi2z-26" edge="1">
                    <mxGeometry relative="1" as="geometry">
                        <Array as="points">
                            <mxPoint x="580" y="30"/>
                            <mxPoint x="930" y="30"/>
                        </Array>
                    </mxGeometry>
                </mxCell>
                <mxCell id="4SYehKu4-7LgS69gVi2z-70" value="I-type" style="edgeLabel;html=1;align=center;verticalAlign=middle;resizable=0;points=[];" parent="4SYehKu4-7LgS69gVi2z-69" vertex="1" connectable="0">
                    <mxGeometry x="0.3266" y="-1" relative="1" as="geometry">
                        <mxPoint x="-4" y="-11" as="offset"/>
                    </mxGeometry>
                </mxCell>
                <mxCell id="8" style="edgeStyle=none;rounded=0;html=1;exitX=0.25;exitY=0;exitDx=0;exitDy=0;entryX=-0.001;entryY=0.549;entryDx=0;entryDy=0;entryPerimeter=0;" parent="1" source="4SYehKu4-7LgS69gVi2z-4" target="4SYehKu4-7LgS69gVi2z-34" edge="1">
                    <mxGeometry relative="1" as="geometry">
                        <Array as="points">
                            <mxPoint x="570" y="160"/>
                            <mxPoint x="570"/>
                            <mxPoint x="1020"/>
                            <mxPoint x="1020" y="120"/>
                            <mxPoint x="1020" y="170"/>
                        </Array>
                    </mxGeometry>
                </mxCell>
                <mxCell id="9" value="Decoded instruction" style="edgeLabel;html=1;align=center;verticalAlign=middle;resizable=0;points=[];" parent="8" vertex="1" connectable="0">
                    <mxGeometry x="-0.0101" y="-1" relative="1" as="geometry">
                        <mxPoint x="17" y="-11" as="offset"/>
                    </mxGeometry>
                </mxCell>
                <mxCell id="4SYehKu4-7LgS69gVi2z-4" value="ID" style="rounded=0;whiteSpace=wrap;html=1;" parent="1" vertex="1">
                    <mxGeometry x="560" y="160" width="80" height="160" as="geometry"/>
                </mxCell>
                <mxCell id="4SYehKu4-7LgS69gVi2z-5" value="" style="group" parent="1" vertex="1" connectable="0">
                    <mxGeometry x="200" y="200" width="70" height="80" as="geometry"/>
                </mxCell>
                <mxCell id="4SYehKu4-7LgS69gVi2z-1" value="PC" style="rounded=0;whiteSpace=wrap;html=1;movable=0;resizable=0;rotatable=0;deletable=0;editable=0;locked=1;connectable=0;" parent="4SYehKu4-7LgS69gVi2z-5" vertex="1">
                    <mxGeometry width="70" height="80" as="geometry"/>
                </mxCell>
                <mxCell id="4SYehKu4-7LgS69gVi2z-6" value="" style="triangle;whiteSpace=wrap;html=1;rotation=-90;" parent="4SYehKu4-7LgS69gVi2z-5" vertex="1">
                    <mxGeometry x="25" y="60" width="20" height="20" as="geometry"/>
                </mxCell>
                <mxCell id="4SYehKu4-7LgS69gVi2z-7" value="" style="endArrow=classic;html=1;rounded=0;" parent="1" edge="1">
                    <mxGeometry width="50" height="50" relative="1" as="geometry">
                        <mxPoint x="270" y="240" as="sourcePoint"/>
                        <mxPoint x="360" y="240" as="targetPoint"/>
                    </mxGeometry>
                </mxCell>
                <mxCell id="4SYehKu4-7LgS69gVi2z-8" value="PC_Address" style="edgeLabel;html=1;align=center;verticalAlign=middle;resizable=0;points=[];" parent="4SYehKu4-7LgS69gVi2z-7" vertex="1" connectable="0">
                    <mxGeometry x="-0.27" relative="1" as="geometry">
                        <mxPoint x="10" y="-10" as="offset"/>
                    </mxGeometry>
                </mxCell>
                <mxCell id="4SYehKu4-7LgS69gVi2z-9" value="" style="endArrow=classic;html=1;rounded=0;entryX=0;entryY=0.5;entryDx=0;entryDy=0;" parent="1" target="4SYehKu4-7LgS69gVi2z-4" edge="1">
                    <mxGeometry width="50" height="50" relative="1" as="geometry">
                        <mxPoint x="440" y="239.8" as="sourcePoint"/>
                        <mxPoint x="520" y="239.8" as="targetPoint"/>
                    </mxGeometry>
                </mxCell>
                <mxCell id="4SYehKu4-7LgS69gVi2z-10" value="Instruction [31:0]" style="edgeLabel;html=1;align=center;verticalAlign=middle;resizable=0;points=[];" parent="4SYehKu4-7LgS69gVi2z-9" vertex="1" connectable="0">
                    <mxGeometry x="-0.27" relative="1" as="geometry">
                        <mxPoint x="11" y="-10" as="offset"/>
                    </mxGeometry>
                </mxCell>
                <mxCell id="4SYehKu4-7LgS69gVi2z-11" value="" style="endArrow=classic;html=1;rounded=0;" parent="1" edge="1">
                    <mxGeometry width="50" height="50" relative="1" as="geometry">
                        <mxPoint x="640" y="170" as="sourcePoint"/>
                        <mxPoint x="720" y="170" as="targetPoint"/>
                    </mxGeometry>
                </mxCell>
                <mxCell id="4SYehKu4-7LgS69gVi2z-15" value="RS1_A" style="edgeLabel;html=1;align=center;verticalAlign=middle;resizable=0;points=[];" parent="4SYehKu4-7LgS69gVi2z-11" vertex="1" connectable="0">
                    <mxGeometry x="-0.85" relative="1" as="geometry">
                        <mxPoint x="32" y="-9" as="offset"/>
                    </mxGeometry>
                </mxCell>
                <mxCell id="4SYehKu4-7LgS69gVi2z-12" value="" style="endArrow=classic;html=1;rounded=0;" parent="1" edge="1">
                    <mxGeometry width="50" height="50" relative="1" as="geometry">
                        <mxPoint x="640" y="190" as="sourcePoint"/>
                        <mxPoint x="720" y="190" as="targetPoint"/>
                    </mxGeometry>
                </mxCell>
                <mxCell id="4SYehKu4-7LgS69gVi2z-16" value="RS2_A" style="edgeLabel;html=1;align=center;verticalAlign=middle;resizable=0;points=[];" parent="4SYehKu4-7LgS69gVi2z-12" vertex="1" connectable="0">
                    <mxGeometry x="0.07" relative="1" as="geometry">
                        <mxPoint x="-4" y="-8" as="offset"/>
                    </mxGeometry>
                </mxCell>
                <mxCell id="4SYehKu4-7LgS69gVi2z-13" value="" style="endArrow=classic;html=1;rounded=0;" parent="1" edge="1">
                    <mxGeometry width="50" height="50" relative="1" as="geometry">
                        <mxPoint x="640" y="210" as="sourcePoint"/>
                        <mxPoint x="720" y="210" as="targetPoint"/>
                    </mxGeometry>
                </mxCell>
                <mxCell id="4SYehKu4-7LgS69gVi2z-17" value="RD1_A" style="edgeLabel;html=1;align=center;verticalAlign=middle;resizable=0;points=[];" parent="4SYehKu4-7LgS69gVi2z-13" vertex="1" connectable="0">
                    <mxGeometry y="-2" relative="1" as="geometry">
                        <mxPoint x="-1" y="-10" as="offset"/>
                    </mxGeometry>
                </mxCell>
                <mxCell id="4SYehKu4-7LgS69gVi2z-28" style="edgeStyle=orthogonalEdgeStyle;rounded=0;orthogonalLoop=1;jettySize=auto;html=1;exitX=1;exitY=0.5;exitDx=0;exitDy=0;entryX=0.75;entryY=1;entryDx=0;entryDy=0;" parent="1" source="4SYehKu4-7LgS69gVi2z-14" target="4SYehKu4-7LgS69gVi2z-26" edge="1">
                    <mxGeometry relative="1" as="geometry">
                        <Array as="points">
                            <mxPoint x="840" y="170"/>
                            <mxPoint x="875" y="170"/>
                            <mxPoint x="875" y="140"/>
                        </Array>
                    </mxGeometry>
                </mxCell>
                <mxCell id="4SYehKu4-7LgS69gVi2z-29" value="RS2" style="edgeLabel;html=1;align=center;verticalAlign=middle;resizable=0;points=[];" parent="4SYehKu4-7LgS69gVi2z-28" vertex="1" connectable="0">
                    <mxGeometry x="0.6116" relative="1" as="geometry">
                        <mxPoint x="-4" y="-8" as="offset"/>
                    </mxGeometry>
                </mxCell>
                <mxCell id="4SYehKu4-7LgS69gVi2z-30" style="edgeStyle=orthogonalEdgeStyle;rounded=0;orthogonalLoop=1;jettySize=auto;html=1;exitX=1;exitY=0.5;exitDx=0;exitDy=0;entryX=-0.002;entryY=0.847;entryDx=0;entryDy=0;entryPerimeter=0;" parent="1" source="4SYehKu4-7LgS69gVi2z-14" target="4SYehKu4-7LgS69gVi2z-34" edge="1">
                    <mxGeometry relative="1" as="geometry">
                        <mxPoint x="960" y="230" as="targetPoint"/>
                        <Array as="points">
                            <mxPoint x="840" y="230"/>
                            <mxPoint x="1040" y="230"/>
                        </Array>
                    </mxGeometry>
                </mxCell>
                <mxCell id="4SYehKu4-7LgS69gVi2z-31" value="RS1" style="edgeLabel;html=1;align=center;verticalAlign=middle;resizable=0;points=[];" parent="4SYehKu4-7LgS69gVi2z-30" vertex="1" connectable="0">
                    <mxGeometry x="-0.2071" relative="1" as="geometry">
                        <mxPoint x="1" y="-10" as="offset"/>
                    </mxGeometry>
                </mxCell>
                <mxCell id="4SYehKu4-7LgS69gVi2z-32" style="edgeStyle=orthogonalEdgeStyle;rounded=0;orthogonalLoop=1;jettySize=auto;html=1;exitX=0;exitY=0.75;exitDx=0;exitDy=0;endArrow=none;endFill=0;startArrow=classic;startFill=1;entryX=1;entryY=0.25;entryDx=0;entryDy=0;" parent="1" source="4SYehKu4-7LgS69gVi2z-14" target="4SYehKu4-7LgS69gVi2z-34" edge="1">
                    <mxGeometry relative="1" as="geometry">
                        <mxPoint x="890" y="320" as="targetPoint"/>
                        <Array as="points">
                            <mxPoint x="670" y="285"/>
                            <mxPoint x="670" y="350"/>
                            <mxPoint x="1180" y="350"/>
                            <mxPoint x="1180" y="230"/>
                            <mxPoint x="1160" y="230"/>
                        </Array>
                    </mxGeometry>
                </mxCell>
                <mxCell id="4SYehKu4-7LgS69gVi2z-33" value="RD1" style="edgeLabel;html=1;align=center;verticalAlign=middle;resizable=0;points=[];" parent="4SYehKu4-7LgS69gVi2z-32" vertex="1" connectable="0">
                    <mxGeometry x="-0.9073" y="1" relative="1" as="geometry">
                        <mxPoint x="494" y="-66" as="offset"/>
                    </mxGeometry>
                </mxCell>
                <mxCell id="4SYehKu4-7LgS69gVi2z-52" value="RD1" style="edgeLabel;html=1;align=center;verticalAlign=middle;resizable=0;points=[];" parent="4SYehKu4-7LgS69gVi2z-32" vertex="1" connectable="0">
                    <mxGeometry x="-0.8132" relative="1" as="geometry">
                        <mxPoint x="20" y="-48" as="offset"/>
                    </mxGeometry>
                </mxCell>
                <mxCell id="4SYehKu4-7LgS69gVi2z-14" value="Register file" style="rounded=0;whiteSpace=wrap;html=1;" parent="1" vertex="1">
                    <mxGeometry x="720" y="150" width="120" height="180" as="geometry"/>
                </mxCell>
                <mxCell id="4SYehKu4-7LgS69gVi2z-23" value="" style="endArrow=classic;html=1;rounded=0;exitX=0.75;exitY=0;exitDx=0;exitDy=0;entryX=0.25;entryY=1;entryDx=0;entryDy=0;" parent="1" target="4SYehKu4-7LgS69gVi2z-26" edge="1">
                    <mxGeometry width="50" height="50" relative="1" as="geometry">
                        <mxPoint x="600" y="160" as="sourcePoint"/>
                        <mxPoint x="800" y="100" as="targetPoint"/>
                        <Array as="points">
                            <mxPoint x="600" y="80"/>
                            <mxPoint x="780" y="80"/>
                        </Array>
                    </mxGeometry>
                </mxCell>
                <mxCell id="4SYehKu4-7LgS69gVi2z-24" value="Imm" style="edgeLabel;html=1;align=center;verticalAlign=middle;resizable=0;points=[];" parent="4SYehKu4-7LgS69gVi2z-23" vertex="1" connectable="0">
                    <mxGeometry x="-0.1155" relative="1" as="geometry">
                        <mxPoint x="67" y="-10" as="offset"/>
                    </mxGeometry>
                </mxCell>
                <mxCell id="4SYehKu4-7LgS69gVi2z-36" style="edgeStyle=orthogonalEdgeStyle;rounded=0;orthogonalLoop=1;jettySize=auto;html=1;exitX=0.5;exitY=0;exitDx=0;exitDy=0;entryX=0;entryY=0.702;entryDx=0;entryDy=0;entryPerimeter=0;" parent="1" source="4SYehKu4-7LgS69gVi2z-26" target="4SYehKu4-7LgS69gVi2z-34" edge="1">
                    <mxGeometry relative="1" as="geometry">
                        <Array as="points">
                            <mxPoint x="990" y="110"/>
                            <mxPoint x="990" y="200"/>
                            <mxPoint x="1040" y="200"/>
                        </Array>
                        <mxPoint x="1030" y="200" as="targetPoint"/>
                    </mxGeometry>
                </mxCell>
                <mxCell id="4SYehKu4-7LgS69gVi2z-55" value="ALU_IN2" style="edgeLabel;html=1;align=center;verticalAlign=middle;resizable=0;points=[];" parent="4SYehKu4-7LgS69gVi2z-36" vertex="1" connectable="0">
                    <mxGeometry x="-0.5259" y="1" relative="1" as="geometry">
                        <mxPoint x="-14" y="-11" as="offset"/>
                    </mxGeometry>
                </mxCell>
                <mxCell id="4SYehKu4-7LgS69gVi2z-26" value="MUX" style="shape=trapezoid;perimeter=trapezoidPerimeter;whiteSpace=wrap;html=1;fixedSize=1;rotation=90;" parent="1" vertex="1">
                    <mxGeometry x="870" y="90" width="120" height="40" as="geometry"/>
                </mxCell>
                <mxCell id="4SYehKu4-7LgS69gVi2z-34" value="" style="rounded=0;whiteSpace=wrap;html=1;" parent="1" vertex="1">
                    <mxGeometry x="1040" y="60" width="120" height="200" as="geometry"/>
                </mxCell>
                <mxCell id="7" style="edgeStyle=none;html=1;rounded=0;exitX=1;exitY=0.5;exitDx=0;exitDy=0;" parent="1" source="4SYehKu4-7LgS69gVi2z-39" edge="1">
                    <mxGeometry relative="1" as="geometry">
                        <mxPoint x="200" y="240" as="targetPoint"/>
                        <Array as="points">
                            <mxPoint x="1200" y="120"/>
                            <mxPoint x="1200" y="-150"/>
                            <mxPoint x="160" y="-150"/>
                            <mxPoint x="160" y="240"/>
                        </Array>
                        <mxPoint x="1180" y="530" as="sourcePoint"/>
                    </mxGeometry>
                </mxCell>
                <mxCell id="10" value="Next adress" style="edgeLabel;html=1;align=center;verticalAlign=middle;resizable=0;points=[];rotation=0;" parent="7" vertex="1" connectable="0">
                    <mxGeometry x="-0.9432" y="1" relative="1" as="geometry">
                        <mxPoint x="1" y="21" as="offset"/>
                    </mxGeometry>
                </mxCell>
                <mxCell id="4SYehKu4-7LgS69gVi2z-39" value="NEXT ADDRESS CALCULATE" style="rounded=0;whiteSpace=wrap;html=1;" parent="1" vertex="1">
                    <mxGeometry x="1040" y="100" width="120" height="40" as="geometry"/>
                </mxCell>
                <mxCell id="4SYehKu4-7LgS69gVi2z-57" value="WE" style="text;html=1;align=center;verticalAlign=middle;resizable=0;points=[];autosize=1;strokeColor=none;fillColor=none;" parent="1" vertex="1">
                    <mxGeometry x="658" y="218" width="40" height="30" as="geometry"/>
                </mxCell>
                <mxCell id="4SYehKu4-7LgS69gVi2z-59" value="RAM" style="rounded=0;whiteSpace=wrap;html=1;" parent="1" vertex="1">
                    <mxGeometry x="1040" y="-130" width="120" height="80" as="geometry"/>
                </mxCell>
                <mxCell id="4SYehKu4-7LgS69gVi2z-61" value="" style="endArrow=classic;html=1;rounded=0;startArrow=classic;startFill=1;" parent="1" edge="1">
                    <mxGeometry width="50" height="50" relative="1" as="geometry">
                        <mxPoint x="1066" y="60" as="sourcePoint"/>
                        <mxPoint x="1066" y="-50" as="targetPoint"/>
                    </mxGeometry>
                </mxCell>
                <mxCell id="4SYehKu4-7LgS69gVi2z-65" value="DATA" style="edgeLabel;html=1;align=center;verticalAlign=middle;resizable=0;points=[];rotation=-90;" parent="4SYehKu4-7LgS69gVi2z-61" vertex="1" connectable="0">
                    <mxGeometry x="-0.3333" y="-1" relative="1" as="geometry">
                        <mxPoint x="-10" y="-8" as="offset"/>
                    </mxGeometry>
                </mxCell>
                <mxCell id="4SYehKu4-7LgS69gVi2z-62" value="" style="endArrow=classic;html=1;rounded=0;" parent="1" edge="1">
                    <mxGeometry width="50" height="50" relative="1" as="geometry">
                        <mxPoint x="1100" y="60" as="sourcePoint"/>
                        <mxPoint x="1100" y="-50" as="targetPoint"/>
                    </mxGeometry>
                </mxCell>
                <mxCell id="4SYehKu4-7LgS69gVi2z-63" value="" style="endArrow=classic;html=1;rounded=0;" parent="1" edge="1">
                    <mxGeometry width="50" height="50" relative="1" as="geometry">
                        <mxPoint x="1132" y="57" as="sourcePoint"/>
                        <mxPoint x="1132" y="-53" as="targetPoint"/>
                    </mxGeometry>
                </mxCell>
                <mxCell id="4SYehKu4-7LgS69gVi2z-67" value="WE_RAM" style="edgeLabel;html=1;align=center;verticalAlign=middle;resizable=0;points=[];rotation=-90;" parent="4SYehKu4-7LgS69gVi2z-63" vertex="1" connectable="0">
                    <mxGeometry x="-0.1545" relative="1" as="geometry">
                        <mxPoint x="-8" as="offset"/>
                    </mxGeometry>
                </mxCell>
                <mxCell id="4SYehKu4-7LgS69gVi2z-64" value="" style="triangle;whiteSpace=wrap;html=1;rotation=90;" parent="1" vertex="1">
                    <mxGeometry x="1090" y="-130" width="20" height="20" as="geometry"/>
                </mxCell>
                <mxCell id="4SYehKu4-7LgS69gVi2z-66" value="RAM_ADDRESS" style="edgeLabel;html=1;align=center;verticalAlign=middle;resizable=0;points=[];rotation=-90;" parent="1" vertex="1" connectable="0">
                    <mxGeometry x="1090" y="2" as="geometry">
                        <mxPoint x="-6" y="2.0000000000000004" as="offset"/>
                    </mxGeometry>
                </mxCell>
                <mxCell id="5" value="RAM Controller" style="rounded=0;whiteSpace=wrap;html=1;" parent="1" vertex="1">
                    <mxGeometry x="1040" y="60" width="120" height="40" as="geometry"/>
                </mxCell>
                <mxCell id="6" value="" style="triangle;whiteSpace=wrap;html=1;rotation=-90;" parent="1" vertex="1">
                    <mxGeometry x="1090" y="240" width="20" height="20" as="geometry"/>
                </mxCell>
                <mxCell id="12" value="Next adress" style="edgeLabel;html=1;align=center;verticalAlign=middle;resizable=0;points=[];rotation=0;" vertex="1" connectable="0" parent="1">
                    <mxGeometry x="160" y="248" as="geometry"/>
                </mxCell>
                <mxCell id="14" value="ALU" style="text;html=1;align=center;verticalAlign=middle;resizable=0;points=[];autosize=1;strokeColor=none;fillColor=none;" vertex="1" parent="1">
                    <mxGeometry x="1075" y="190" width="50" height="30" as="geometry"/>
                </mxCell>
            </root>
        </mxGraphModel>
    </diagram>
</mxfile>